<svg id="Layer_1" data-name="Layer 1" xmlns="http://www.w3.org/2000/svg" viewBox="0 0 422 242.65"><defs><style>.cls-1{fill:#ded991;stroke:#000;stroke-miterlimit:10;}</style></defs><title>crow_favicon</title><path class="cls-1" d="M66.52,358.54a15.73,15.73,0,0,0,6.38-2.46l74.36-42.72,2-1.58h2.36l33.2-.78h20.63l.79,9.62v8.84l1.76,7.27,3.93,12.38,2.56,6.29,6.48,4.71,6.48,2.55,4.91,1.38,7.66,5.11,4.52,1.57v-3l-2.16-2.94-4.71-2.36-6.88-3.54-6.09-2.36-3.73-4.12v-2l5.5,3.34,5.5,2.36,7.07,2.75h4.72l5.5.39,5.7.4,5.5.39-.79-3.14-3.14-2-4.91-.19-7.08.39L238.61,353l-13.75-7.66-6.09-5.9-1.18-8.25,1.57-12,1.77-8.25h5.5l3.51.54,4.42-.15,7.07-2.36,9.14-3.83,4.93-2.13,2.29-.52,3.17-.29,4.05.59,6.63,1.62,6.33,3.09,4.64,3.24,6.09,4.91,4.52,5.9,4.91,9.43,1.58,5.45,1.76,4.17,1.18-.39,1-.69.4-3.09-.79-4.08-.88-7.17-1.28-4.62-1.67-4.32-1-2.06.78-.49,3.44,1.57,5.21,4.52,5.3,7.56,4.23,5.31,2.65,2.16,1.47.29-.78-4.81L318.57,327l-3.64-5.5L310,316.79l-3.54-3-2-1.57,5.11,1.57,5.79,2.65,5,3.24,4.42,3.24,4.91,2.16,2.56.5,1.18-.5-1.38-4.22L326,315l-9.82-5.6-9.82-3.54-10.51-2.06-6.29-.89s-7.76-8.05-12.28-9.13,13.85-5.4,24.56-29c2.37-5.22,2.75-6.19,2.75-6.19l5.89-8.44,7.17-6.68,6.39-5.11,8.84-7.47,9.62-8.64L352,214s2.26-1,8.45-6.58,9.28-5.6,9.28-5.6l7.37-3.83,3.09-2.06,8-4.42,5.75-2.07,8.25-4.56,3.83-1.92,4.42-1h21.21a89.27,89.27,0,0,1,9.73-.74c5.74-.14,16.5,0,18.56,0s-6-7.36-6-7.36l-6.33-6.19-10-4-11.64-3.09-7.22-1.77-6.19-2.95L409,151.53l-1.62-4.13-3.54-2.8-5.59-3.24-9-4.86-13.75-7.22-41.65,2.65-77.5,22.69-18.86-2.06-45.09,27.11,35.66-26.23-12.67-1.17-74.26,53.92L98.74,267.78,75.75,302,39.8,363l9.87-3.24,18.27-27.41L65,349.11,78.11,341,66.47,356.92Z" transform="translate(-38.7 -128.77)"/><polygon class="cls-1" points="169.95 231.83 167.99 234.87 169.95 237.23 183.71 241.06 188.32 241.95 192.15 241.95 193.82 241.55 172.8 231.83 169.95 231.83"/></svg>